<?xml version="1.0" encoding="UTF-8" standalone="no"?>
<!DOCTYPE svg PUBLIC "-//W3C//DTD SVG 1.1//EN" "http://www.w3.org/Graphics/SVG/1.1/DTD/svg11.dtd">
<svg width="100%" height="100%" viewBox="0 0 31 31" version="1.1" xmlns="http://www.w3.org/2000/svg" xmlns:xlink="http://www.w3.org/1999/xlink" xml:space="preserve" xmlns:serif="http://www.serif.com/" style="fill-rule:evenodd;clip-rule:evenodd;stroke-linejoin:round;stroke-miterlimit:2;">
    <g transform="matrix(0.122268,0,0,0.122268,0,0)">
        <path d="M237.248,18.752C249.289,30.792 255.539,45.874 255.996,63.999L255.996,192.001C255.539,210.121 249.289,225.208 237.248,237.248C225.208,249.289 210.121,255.539 191.997,256L63.999,256C45.874,255.539 30.792,249.289 18.752,237.248C6.711,225.208 0.461,210.121 0,192.001L0,63.999C0.461,45.874 6.711,30.792 18.752,18.752C30.792,6.711 45.874,0.461 63.999,0L191.997,0C210.121,0.461 225.208,6.711 237.248,18.752ZM219.593,121.752C215.57,117.75 213.479,112.728 213.313,106.686L213.313,63.999C213.185,57.957 211.111,52.927 207.092,48.908C203.073,44.885 198.038,42.815 191.997,42.687L170.685,42.687L170.685,149.314L85.315,42.687L63.999,42.687C57.957,42.815 52.927,44.885 48.908,48.908C44.885,52.927 42.815,57.957 42.687,63.999L42.687,106.686C42.521,112.728 40.43,117.75 36.407,121.752C32.388,125.749 27.357,127.831 21.316,127.998C27.357,128.169 32.388,130.251 36.407,134.248C40.43,138.25 42.521,143.272 42.687,149.314L42.687,192.001C42.815,198.038 44.885,203.073 48.908,207.092C52.927,211.111 57.957,213.185 63.999,213.313L85.315,213.313L85.315,106.686L170.685,213.313L191.997,213.313C198.038,213.185 203.073,211.111 207.092,207.092C211.111,203.073 213.185,198.038 213.313,192.001L213.313,149.314C213.479,143.272 215.57,138.25 219.593,134.248C223.612,130.251 228.643,128.169 234.684,127.998C228.643,127.831 223.612,125.749 219.593,121.752Z" style="fill:rgb(112,112,112);fill-rule:nonzero;"/>
    </g>
</svg>
